<?xml version="1.0" standalone="no"?><!DOCTYPE svg PUBLIC "-//W3C//DTD SVG 1.1//EN" "http://www.w3.org/Graphics/SVG/1.1/DTD/svg11.dtd"><svg t="1628065028008" class="icon" viewBox="0 0 1024 1024" version="1.1" xmlns="http://www.w3.org/2000/svg" p-id="3592" xmlns:xlink="http://www.w3.org/1999/xlink" width="200" height="200"><defs><style type="text/css"></style></defs><path d="M796.059711 128.365195a482.807533 482.807533 0 0 1 34.969965 28.562639 17.254917 17.254917 0 1 0 23.064073-25.663813c-11.963409-10.755565-24.571002-21.050999-37.47768-30.621726a17.256067 17.256067 0 1 0-20.556358 27.7229z" fill="#515151" p-id="3593"></path><path d="M942.427421 234.839536a17.254917 17.254917 0 1 0-28.988261 18.715833 475.626037 475.626037 0 0 1 76.013661 258.559181c0 263.229511-214.145024 477.386038-477.386038 477.386038s-477.386038-214.156527-477.386038-477.386038 214.145024-477.386038 477.386038-477.386039a475.683553 475.683553 0 0 1 166.659492 29.908523 17.254917 17.254917 0 0 0 12.055436-32.335714 511.964892 511.964892 0 1 0 251.64571 202.538216z" fill="#515151" p-id="3594"></path><path d="M525.203527 395.793402l221.679671 101.746494L525.203527 129.29696v266.496442zM498.147817 129.29696L276.468146 497.539896l221.679671-101.746494V129.29696zM525.203527 657.527487l219.942676-131.010833-219.942676-100.952768V657.527487zM498.147817 425.563886l-219.942676 100.952768 219.942676 131.010833V425.563886zM498.147817 895.518806V703.667135L264.090619 566.812637l234.057198 328.706169zM525.203527 895.518806l234.057198-328.706169-234.057198 136.854498v191.851671z" fill="#515151" p-id="3595"></path></svg>